<svg version="1.1" id="Layer_1" xmlns="http://www.w3.org/2000/svg" xmlns:xlink="http://www.w3.org/1999/xlink" x="0px" y="0px"
	 width="100%" viewBox="0 0 325 260" enable-background="new 0 0 325 260" xml:space="preserve">
<path fill="#000000" opacity="1.000000" stroke="none" 
	d="
M168.000000,261.000000 
	C112.000015,261.000000 56.500027,261.000000 1.000030,261.000000 
	C1.000020,174.333374 1.000020,87.666733 1.000010,1.000076 
	C109.333275,1.000051 217.666550,1.000051 325.999878,1.000025 
	C325.999908,87.666588 325.999908,174.333176 325.999939,260.999878 
	C273.500000,261.000000 221.000000,261.000000 168.000000,261.000000 
M224.979355,128.996674 
	C224.986237,121.331100 225.171265,113.660355 224.949341,106.001411 
	C224.732224,98.509354 222.529800,91.533653 218.618652,85.078491 
	C209.179749,69.499954 194.028992,64.095314 177.216888,63.195801 
	C160.242828,62.287617 143.180115,63.146484 126.166206,62.774719 
	C123.008186,62.705711 122.817642,63.518265 122.398369,66.023712 
	C121.097389,73.798149 119.535805,81.532738 117.914810,89.249069 
	C114.595711,105.048805 111.141502,120.820236 107.863197,136.628250 
	C107.654343,137.635330 108.116646,139.343613 108.874168,139.902786 
	C117.169434,146.026199 125.585617,151.985779 134.643127,158.472717 
	C128.481415,163.057648 122.537987,167.486221 116.587929,171.905869 
	C110.486404,176.438034 104.378403,180.961487 97.763954,185.866425 
	C101.606560,186.275696 105.010719,186.982132 108.406174,186.942505 
	C126.491547,186.731384 144.576218,186.397598 162.658188,185.978714 
	C175.753189,185.675339 187.675186,181.388474 198.236572,173.889999 
	C208.340881,166.716064 215.656479,157.061600 219.954681,145.362656 
	C221.816376,140.295441 223.121613,135.023773 224.979355,128.996674 
z"/>
<path fill="#FFFFFF" opacity="1.000000" stroke="none" 
	d="
M224.829483,129.420822 
	C223.121613,135.023773 221.816376,140.295441 219.954681,145.362656 
	C215.656479,157.061600 208.340881,166.716064 198.236572,173.889999 
	C187.675186,181.388474 175.753189,185.675339 162.658188,185.978714 
	C144.576218,186.397598 126.491547,186.731384 108.406174,186.942505 
	C105.010719,186.982132 101.606560,186.275696 97.763954,185.866425 
	C104.378403,180.961487 110.486404,176.438034 116.587929,171.905869 
	C122.537987,167.486221 128.481415,163.057648 134.643127,158.472717 
	C125.585617,151.985779 117.169434,146.026199 108.874168,139.902786 
	C108.116646,139.343613 107.654343,137.635330 107.863197,136.628250 
	C111.141502,120.820236 114.595711,105.048805 117.914810,89.249069 
	C119.535805,81.532738 121.097389,73.798149 122.398369,66.023712 
	C122.817642,63.518265 123.008186,62.705711 126.166206,62.774719 
	C143.180115,63.146484 160.242828,62.287617 177.216888,63.195801 
	C194.028992,64.095314 209.179749,69.499954 218.618652,85.078491 
	C222.529800,91.533653 224.732224,98.509354 224.949341,106.001411 
	C225.171265,113.660355 224.986237,121.331100 224.829483,129.420822 
M152.434067,91.090782 
	C148.776276,94.379913 149.168121,99.210236 148.129547,103.359947 
	C145.471619,113.979973 143.441895,124.757904 141.193192,135.479446 
	C139.652588,142.824936 138.166077,150.181763 136.559738,157.998947 
	C144.854172,157.998947 152.367493,158.510162 159.782608,157.875031 
	C170.028427,156.997437 178.933121,152.796249 184.591873,143.770554 
	C190.637283,134.128128 193.508255,123.379852 191.865814,112.094482 
	C190.006348,99.318016 185.315674,93.992905 173.979980,92.143303 
	C167.199295,91.036926 160.189011,91.337563 152.434067,91.090782 
z"/>
<path fill="#000000" opacity="1.000000" stroke="none" 
	d="
M152.858002,91.048271 
	C160.189011,91.337563 167.199295,91.036926 173.979980,92.143303 
	C185.315674,93.992905 190.006348,99.318016 191.865814,112.094482 
	C193.508255,123.379852 190.637283,134.128128 184.591873,143.770554 
	C178.933121,152.796249 170.028427,156.997437 159.782608,157.875031 
	C152.367493,158.510162 144.854172,157.998947 136.559738,157.998947 
	C138.166077,150.181763 139.652588,142.824936 141.193192,135.479446 
	C143.441895,124.757904 145.471619,113.979973 148.129547,103.359947 
	C149.168121,99.210236 148.776276,94.379913 152.858002,91.048271 
z"/>
</svg>